<?xml version="1.0" encoding="utf-8"?>
<!-- Generator: Adobe Illustrator 26.0.2, SVG Export Plug-In . SVG Version: 6.00 Build 0)  -->
<svg version="1.1" id="レイヤー_1" xmlns="http://www.w3.org/2000/svg" xmlns:xlink="http://www.w3.org/1999/xlink" x="0px"
	 y="0px" viewBox="0 0 138 15.5" style="enable-background:new 0 0 138 15.5;" xml:space="preserve">
<style type="text/css">
	.st0{fill:#FFFFFF;}
</style>
<g id="ENEOSウイング_2">
	<path class="st0" d="M14,8.2V15h4.3V8.8L18.6,9c0,0,5.6,4.2,9.3,6.4l0,0V0.7h-4.3V7l-0.3-0.2c-0.1,0-5.8-4.3-9.3-6.4
		C14,3.5,14,5.8,14,8.2z"/>
	<path class="st0" d="M43.3,7.8c-0.1,4.2,3.3,7.7,7.5,7.8h0.3c4.3,0,7.8-3.5,7.8-7.8S55.5,0,51.2,0l0,0c-4.2-0.1-7.8,3.2-7.9,7.4
		V7.8z M47.7,7.8c-0.1-2,1.4-3.7,3.4-3.8c2-0.1,3.7,1.4,3.8,3.4c0,0.1,0,0.3,0,0.4c0.1,1.9-1.3,3.6-3.2,3.7h-0.4
		c-1.9,0.1-3.5-1.3-3.6-3.1c0,0,0,0,0,0C47.6,8.2,47.6,8,47.7,7.8L47.7,7.8z"/>
	<path class="st0" d="M60.3,5.5c0,2.6,2.4,3.9,4.2,4l0.8,0.1c1.5,0.2,2.2,0.7,2.2,1.6s-0.7,1.5-1.9,1.5c-1,0-2-0.6-2.4-1.6L60,12.4
		l0,0c0.9,2.1,2.9,3.2,5.7,3.2c3.8,0,6.4-2.2,6.4-5.5c0-1.2-0.9-3.5-4.1-4.1l0,0c-0.2,0-0.4-0.1-0.6-0.1H67
		c-1.3-0.2-2.5-0.5-2.5-1.6c0-0.3,0.1-1.4,1.8-1.4c1-0.1,1.9,0.5,2.3,1.4l3-1.1l0,0c-0.4-1.9-2.3-3-5.1-3C62.6,0.1,60.3,2,60.3,5.5z
		"/>
	<path class="st0" d="M11.5,12h-7V9.4h6.9V6.1H4.5V3.5h7V0.5H0v14.5h11.5V12z"/>
	<path class="st0" d="M41.7,12h-7V9.4h7V6.1h-7V3.5h7V0.5H30.2v14.5h11.5V12z"/>
	<path class="st0" d="M106.6,8.2V15h4.3V8.8l0.3,0.2c0,0,5.6,4.2,9.3,6.4l0,0V0.7c0,0,0-0.1,0-0.1h-4.3v6.3l-0.3-0.2
		c0,0-5.8-4.4-9.3-6.5C106.6,3.5,106.6,5.8,106.6,8.2z"/>
	<path class="st0" d="M99.5,0.5v14.5h4.5V0.5H99.5z"/>
	<polygon class="st0" points="98.5,0.5 93.9,0.5 91.1,7.4 87.5,0.6 83.9,7.4 81.1,0.5 76.6,0.5 83.2,15.8 87.5,8.1 91.9,15.8 	"/>
	<path class="st0" d="M130.1,6.4v3h3.3c-0.5,1.4-1.9,2.3-3.4,2.2c-1.9,0.1-3.5-1.3-3.6-3.2c0,0,0,0,0,0c0-0.2,0-0.3,0-0.5
		c-0.1-1.9,1.3-3.4,3.2-3.5h0.4c0.7,0,1.4,0.2,2,0.5l3.6-2.6c-3.1-3.1-8.1-3.1-11.1,0c-3.1,3.1-3.1,8.1,0,11.1
		c1.5,1.5,3.5,2.3,5.6,2.3c4.2,0.1,7.8-3.3,7.9-7.5V8c0-0.5,0-1-0.1-1.6L130.1,6.4z"/>
</g>
</svg>
