<svg xmlns="http://www.w3.org/2000/svg" viewBox="0 0 138 15.53"><defs><style>.cls-1{fill:#251e1c;}</style></defs><g id="ENEOSウイング_2" data-name="ENEOSウイング 2"><path class="cls-1" d="M14,8.25V15h4.26V8.78l.31.21s5.6,4.17,9.28,6.42h0V.7H23.59V7l-.31-.22c-.06,0-5.84-4.31-9.27-6.45C14,3.45,14,5.85,14,8.25Z"/><path class="cls-1" d="M43.33,7.83a7.67,7.67,0,0,0,7.54,7.79h.35A7.8,7.8,0,1,0,51.22,0h0a7.66,7.66,0,0,0-7.89,7.41Zm4.32,0a3.6,3.6,0,1,1,7.19,0,3.47,3.47,0,0,1-3.24,3.68h-.36a3.38,3.38,0,0,1-3.6-3.16,3.35,3.35,0,0,1,0-.55Z"/><path class="cls-1" d="M60.32,5.47c0,2.57,2.4,3.9,4.18,4l.76.12c1.48.18,2.23.73,2.23,1.64s-.7,1.48-1.89,1.48a2.62,2.62,0,0,1-2.4-1.56L60,12.38h0c.86,2.07,2.89,3.21,5.7,3.21,3.82,0,6.37-2.19,6.37-5.48,0-1.2-.86-3.49-4.08-4.08h0a5.25,5.25,0,0,1-.55-.09H67c-1.3-.21-2.5-.53-2.5-1.62,0-.33.12-1.39,1.77-1.39a2.26,2.26,0,0,1,2.29,1.36l3-1.11h0c-.4-1.9-2.32-3-5.12-3C62.58.07,60.32,2,60.32,5.47Z"/><path class="cls-1" d="M11.48,12h-7V9.45h6.94V6.1H4.52V3.45h7V.54H0V15.07H11.48Z"/><path class="cls-1" d="M41.7,12h-7V9.45h7V6.1h-7V3.45h7V.54H30.23V15.07H41.7Z"/><path class="cls-1" d="M106.61,8.25V15h4.32V8.78l.31.21s5.6,4.17,9.29,6.42h0V.7a.11.11,0,0,1,0-.08h-4.3V6.94l-.31-.21s-5.83-4.36-9.27-6.51C106.63,3.45,106.61,5.85,106.61,8.25Z"/><path class="cls-1" d="M99.53.54V15.07h4.52V.54Z"/><polygon class="cls-1" points="98.48 0.54 93.95 0.54 91.12 7.43 87.52 0.56 83.95 7.43 81.11 0.54 76.57 0.54 83.16 15.75 87.52 8.11 91.9 15.75 98.48 0.54"/><path class="cls-1" d="M130.12,6.4v3h3.31a3.24,3.24,0,0,1-3.35,2.18,3.4,3.4,0,0,1-3.6-3.19,2.66,2.66,0,0,1,0-.49,3.37,3.37,0,0,1,3.19-3.54h.4a3.93,3.93,0,0,1,2,.51l3.6-2.59a7.88,7.88,0,1,0-5.56,13.43A7.75,7.75,0,0,0,138,8.18V8a8,8,0,0,0-.12-1.55Z"/></g></svg>